<?xml version="1.0" encoding="UTF-8" standalone="no"?>
<!-- res/GEMS.svg -->

<svg
   width="120mm"
   height="128.5mm"
   viewBox="0 0 120 128.5"
   version="1.1"
   id="svg30"
   sodipodi:docname="GEMS.svg"
   inkscape:version="1.3.2 (091e20e, 2023-11-25)"
   xmlns:inkscape="http://www.inkscape.org/namespaces/inkscape"
   xmlns:sodipodi="http://sodipodi.sourceforge.net/DTD/sodipodi-0.dtd"
   xmlns="http://www.w3.org/2000/svg"
   xmlns:svg="http://www.w3.org/2000/svg">
  <sodipodi:namedview
     id="namedview30"
     pagecolor="#ffffff"
     bordercolor="#000000"
     borderopacity="0.25"
     inkscape:showpageshadow="2"
     inkscape:pageopacity="0.0"
     inkscape:pagecheckerboard="0"
     inkscape:deskcolor="#d1d1d1"
     inkscape:document-units="mm"
     showgrid="false"
     inkscape:zoom="1.1386349"
     inkscape:cx="226.58712"
     inkscape:cy="242.83464"
     inkscape:window-width="1440"
     inkscape:window-height="766"
     inkscape:window-x="0"
     inkscape:window-y="38"
     inkscape:window-maximized="0"
     inkscape:current-layer="svg30" />
  <defs
     id="defs4">
    <linearGradient
       id="bg"
       x1="0"
       y1="0"
       x2="0"
       y2="1">
      <stop
         offset="0"
         stop-color="#141414"
         id="stop1" />
      <stop
         offset="1"
         stop-color="#0e0e0e"
         id="stop2" />
    </linearGradient>
    <linearGradient
       id="bevel"
       x1="0"
       y1="0"
       x2="0"
       y2="1">
      <stop
         offset="0"
         stop-color="#2b2b2b"
         stop-opacity="0.9"
         id="stop3" />
      <stop
         offset="1"
         stop-color="#000"
         stop-opacity="0.2"
         id="stop4" />
    </linearGradient>
  </defs>
  <path
     id="rect4"
     style="fill:url(#bg)"
     d="M 0,0 H 120 V 128.5 H 0 Z" />
  <path
     id="rect5"
     style="fill:none;stroke:url(#bevel);stroke-width:1.2"
     d="M 1.2,1.2 H 118.8 V 127.3 H 1.2 Z" />
  <!-- Title -->
  <path
     d="M 47.537695,6.3154297 V 5.8115234 l 1.819336,-0.00293 v 1.59375 q -0.418945,0.3339844 -0.864258,0.5039063 -0.445312,0.1669922 -0.914062,0.1669922 -0.632813,0 -1.151367,-0.2695313 Q 45.911719,7.53125 45.648047,7.0185547 45.384375,6.5058594 45.384375,5.8730469 q 0,-0.6269532 0.260742,-1.1689453 0.263672,-0.5449219 0.755859,-0.8085938 0.492188,-0.2636719 1.133789,-0.2636719 0.465821,0 0.840821,0.1523438 0.377929,0.1494141 0.591797,0.4189453 0.213867,0.2695312 0.325195,0.703125 L 48.779883,5.046875 Q 48.683203,4.71875 48.539648,4.53125 48.396094,4.34375 48.129492,4.2324219 47.86289,4.1181641 47.537695,4.1181641 q -0.389648,0 -0.673828,0.1201171 -0.28418,0.1171875 -0.459961,0.3105469 -0.172851,0.1933594 -0.269531,0.4248047 -0.164063,0.3984375 -0.164063,0.8642578 0,0.5742188 0.196289,0.9609375 0.199219,0.3867188 0.577149,0.5742188 0.37793,0.1875 0.802734,0.1875 0.369141,0 0.720703,-0.140625 Q 48.61875,7.2763672 48.80039,7.1152344 V 6.3154297 Z M 51.476953,8 V 7.3994141 h 0.600586 V 8 Z m 2.796679,0 V 3.7050781 h 3.105469 v 0.506836 h -2.537109 v 1.3154296 h 2.375976 V 6.03125 H 54.841992 V 7.4931641 H 57.47871 V 8 Z m 5.272267,0 V 7.3994141 h 0.600586 V 8 Z M 62.31328,8 V 3.7050781 h 0.855469 l 1.016602,3.0410156 q 0.140625,0.4248047 0.205078,0.6357422 0.07324,-0.234375 0.228515,-0.6884765 l 1.028321,-2.9882813 h 0.764648 V 8 H 65.864062 V 4.4052734 L 64.616015,8 H 64.103319 L 62.861132,4.34375 V 8 Z m 6.297657,0 V 7.3994141 h 0.600586 V 8 Z m 2.591603,-1.3798828 0.536132,-0.046875 q 0.03809,0.3222656 0.175782,0.5302734 0.140625,0.2050781 0.433593,0.3339844 0.292969,0.1259766 0.65918,0.1259766 0.325195,0 0.574219,-0.09668 0.249023,-0.09668 0.369141,-0.2636719 0.123046,-0.1699219 0.123046,-0.3691406 0,-0.2021485 -0.117187,-0.3515625 Q 73.839258,6.3300781 73.569727,6.2275391 73.396876,6.1601562 72.805079,6.0195312 72.213282,5.8759766 71.975977,5.75 71.66836,5.5888672 71.516016,5.3515625 71.366602,5.1113281 71.366602,4.8154297 q 0,-0.3251953 0.18457,-0.6064453 0.184571,-0.2841797 0.539063,-0.4306641 0.354492,-0.1464844 0.788086,-0.1464844 0.477539,0 0.84082,0.1552735 0.366211,0.1523437 0.5625,0.4511718 0.196289,0.2988282 0.210938,0.6767579 l -0.544922,0.041016 Q 73.903712,4.5488281 73.648829,4.3408203 73.396876,4.1328125 72.901758,4.1328125 q -0.515625,0 -0.752929,0.1904297 -0.234375,0.1875 -0.234375,0.4541015 0,0.2314454 0.166992,0.3808594 0.164062,0.1494141 0.855469,0.3076172 0.694336,0.1552734 0.952148,0.2724609 0.375,0.1728516 0.553711,0.4394532 0.178711,0.2636718 0.178711,0.609375 0,0.3427734 -0.196289,0.6474609 -0.196289,0.3017578 -0.56543,0.4716797 -0.366211,0.1669922 -0.826172,0.1669922 -0.583007,0 -0.978515,-0.1699219 Q 71.662501,7.7333984 71.436915,7.3935547 71.214258,7.0507812 71.20254,6.6201172 Z"
     id="text5"
     style="font-size:6px;font-family:Inter, Roboto, Arial, sans-serif;letter-spacing:1.2;text-anchor:middle;fill:#e8e8e8"
     aria-label="G.E.M.S" />
  <path
     d="m 24.386475,11.357715 v -0.251953 l 0.909668,-0.0015 v 0.796875 q -0.209473,0.166992 -0.432129,0.251953 -0.222657,0.0835 -0.457032,0.0835 -0.316406,0 -0.575683,-0.134766 -0.257813,-0.13623 -0.389649,-0.392578 -0.131836,-0.256348 -0.131836,-0.572754 0,-0.313476 0.130372,-0.584472 0.131835,-0.272461 0.377929,-0.404297 0.246094,-0.131836 0.566895,-0.131836 0.23291,0 0.42041,0.07617 0.188965,0.07471 0.295898,0.209472 0.106934,0.134766 0.162598,0.351563 l -0.256348,0.07031 q -0.04834,-0.164062 -0.120117,-0.257812 -0.07178,-0.09375 -0.205078,-0.149414 -0.133301,-0.05713 -0.295898,-0.05713 -0.194825,0 -0.336914,0.06006 -0.14209,0.05859 -0.229981,0.155274 -0.08643,0.09668 -0.134766,0.212402 -0.08203,0.199219 -0.08203,0.432129 0,0.287109 0.09815,0.480469 0.09961,0.193359 0.288574,0.287109 0.188965,0.09375 0.401367,0.09375 0.18457,0 0.360352,-0.07031 0.175781,-0.07178 0.266601,-0.152344 v -0.399902 z m 2.859863,0.341308 0.272461,0.03369 q -0.06445,0.238769 -0.23877,0.370605 -0.174316,0.131836 -0.445312,0.131836 -0.341309,0 -0.541992,-0.209473 -0.199219,-0.210937 -0.199219,-0.590332 0,-0.392578 0.202148,-0.609375 0.202149,-0.216797 0.524414,-0.216797 0.312012,0 0.509766,0.212403 0.197754,0.212402 0.197754,0.597656 0,0.02344 -0.0015,0.07031 h -1.160156 q 0.01465,0.256347 0.145019,0.392578 0.130371,0.13623 0.325196,0.13623 0.145019,0 0.247558,-0.07617 0.102539,-0.07617 0.162598,-0.243164 z m -0.865723,-0.426269 h 0.868653 q -0.01758,-0.196289 -0.09961,-0.294434 -0.125976,-0.152344 -0.32666,-0.152344 -0.181641,0 -0.306152,0.121582 -0.123047,0.121582 -0.136231,0.325196 z M 28.349854,12.2 v -1.555664 h 0.237304 v 0.221191 q 0.171387,-0.256348 0.495117,-0.256348 0.140625,0 0.257813,0.05127 0.118652,0.04981 0.177246,0.131836 0.05859,0.08203 0.08203,0.194824 0.01465,0.07324 0.01465,0.256348 V 12.2 h -0.263672 v -0.946289 q 0,-0.161133 -0.03076,-0.240235 -0.03076,-0.08057 -0.109863,-0.127441 -0.07764,-0.04834 -0.183106,-0.04834 -0.168457,0 -0.291504,0.106934 -0.121582,0.106933 -0.121582,0.405761 V 12.2 Z m 3.233398,-0.500977 0.272461,0.03369 q -0.06445,0.238769 -0.23877,0.370605 -0.174316,0.131836 -0.445312,0.131836 -0.341309,0 -0.541992,-0.209473 -0.199219,-0.210937 -0.199219,-0.590332 0,-0.392578 0.202148,-0.609375 0.202149,-0.216797 0.524414,-0.216797 0.312012,0 0.509766,0.212403 0.197754,0.212402 0.197754,0.597656 0,0.02344 -0.0015,0.07031 h -1.160156 q 0.01465,0.256347 0.145019,0.392578 0.130371,0.13623 0.325196,0.13623 0.145019,0 0.247558,-0.07617 0.102539,-0.07617 0.162598,-0.243164 z m -0.865723,-0.426269 h 0.868653 q -0.01758,-0.196289 -0.09961,-0.294434 -0.125976,-0.152344 -0.32666,-0.152344 -0.181641,0 -0.306152,0.121582 -0.123047,0.121582 -0.136231,0.325196 z M 32.683838,12.2 v -1.555664 h 0.237305 v 0.23584 q 0.09082,-0.165528 0.166992,-0.218262 0.07764,-0.05274 0.169922,-0.05274 0.1333,0 0.270996,0.08496 l -0.09082,0.244629 q -0.09668,-0.05713 -0.193359,-0.05713 -0.08643,0 -0.155273,0.05273 -0.06885,0.05127 -0.09814,0.143554 -0.04395,0.140625 -0.04395,0.307618 V 12.2 Z m 2.51709,-0.191895 q -0.146485,0.124512 -0.282715,0.175782 -0.134766,0.05127 -0.290039,0.05127 -0.256348,0 -0.394043,-0.124512 -0.137695,-0.125976 -0.137695,-0.3208 0,-0.114258 0.05127,-0.208008 0.05273,-0.09521 0.136231,-0.152344 0.08496,-0.05713 0.190429,-0.08643 0.07764,-0.02051 0.234375,-0.03955 0.319336,-0.03809 0.470215,-0.09082 0.0015,-0.0542 0.0015,-0.06885 0,-0.161132 -0.07471,-0.22705 -0.101074,-0.08936 -0.300293,-0.08936 -0.186035,0 -0.275391,0.06592 -0.08789,0.06445 -0.130371,0.229981 l -0.257812,-0.03516 q 0.03516,-0.165527 0.115722,-0.266601 0.08057,-0.102539 0.232911,-0.156738 0.152343,-0.05567 0.353027,-0.05567 0.199219,0 0.32373,0.04687 0.124512,0.04687 0.183106,0.118653 0.05859,0.07031 0.08203,0.178711 0.01318,0.06738 0.01318,0.243164 v 0.351562 q 0,0.367676 0.01611,0.465821 0.01758,0.09668 0.06738,0.186035 h -0.275391 q -0.04102,-0.08203 -0.05273,-0.191895 z m -0.02197,-0.588867 q -0.143555,0.05859 -0.430664,0.09961 -0.162598,0.02344 -0.22998,0.05274 -0.06738,0.0293 -0.104004,0.08643 -0.03662,0.05566 -0.03662,0.124511 0,0.105469 0.0791,0.175782 0.08057,0.07031 0.234375,0.07031 0.152344,0 0.270996,-0.06592 0.118653,-0.06738 0.174317,-0.183105 0.04248,-0.08936 0.04248,-0.263672 z m 1.750977,0.544922 0.03809,0.23291 q -0.111329,0.02344 -0.199219,0.02344 -0.143555,0 -0.222656,-0.04541 -0.0791,-0.04541 -0.111329,-0.118652 -0.03223,-0.07471 -0.03223,-0.312012 v -0.895019 h -0.193359 v -0.205078 h 0.193359 v -0.385254 l 0.262207,-0.158203 v 0.543457 h 0.265137 v 0.205078 h -0.265137 v 0.909668 q 0,0.112793 0.01318,0.145019 0.01465,0.03223 0.04541,0.05127 0.03223,0.01904 0.09082,0.01904 0.04395,0 0.115723,-0.01025 z m 0.759277,-1.608398 v -0.303223 h 0.263672 v 0.303223 z m 0,1.844238 v -1.555664 h 0.263672 V 12.2 Z m 1.597168,0 -0.591797,-1.555664 h 0.27832 l 0.333985,0.93164 q 0.0542,0.150879 0.09961,0.313477 0.03516,-0.123047 0.09814,-0.295899 l 0.345703,-0.949218 h 0.270996 L 39.532471,12.2 Z m 2.632812,-0.500977 0.272461,0.03369 q -0.06445,0.238769 -0.238769,0.370605 -0.174317,0.131836 -0.445313,0.131836 -0.341308,0 -0.541992,-0.209473 -0.199219,-0.210937 -0.199219,-0.590332 0,-0.392578 0.202149,-0.609375 0.202148,-0.216797 0.524414,-0.216797 0.312012,0 0.509766,0.212403 0.197753,0.212402 0.197753,0.597656 0,0.02344 -0.0015,0.07031 h -1.160157 q 0.01465,0.256347 0.14502,0.392578 0.130371,0.13623 0.325195,0.13623 0.14502,0 0.247559,-0.07617 0.102539,-0.07617 0.162597,-0.243164 z m -0.865722,-0.426269 h 0.868652 q -0.01758,-0.196289 -0.09961,-0.294434 -0.125977,-0.152344 -0.32666,-0.152344 -0.181641,0 -0.306153,0.121582 -0.123047,0.121582 -0.13623,0.325196 z M 44.395752,12.2 v -2.147461 h 1.552734 v 0.253418 h -1.268554 v 0.657715 h 1.187988 v 0.251953 h -1.187988 v 0.730957 h 1.318359 V 12.2 Z m 3.480957,0 v -0.228516 q -0.181641,0.263672 -0.493652,0.263672 -0.137696,0 -0.257813,-0.05273 -0.118652,-0.05274 -0.177246,-0.131836 -0.05713,-0.08057 -0.08057,-0.196289 -0.01611,-0.07764 -0.01611,-0.246094 v -0.963867 h 0.263672 v 0.862793 q 0,0.206543 0.01611,0.27832 0.0249,0.104004 0.105468,0.164063 0.08057,0.05859 0.199219,0.05859 0.118652,0 0.222656,-0.06006 0.104004,-0.06152 0.146485,-0.165528 0.04395,-0.105468 0.04395,-0.304687 v -0.833496 h 0.263672 V 12.2 Z m 2.164062,-0.569824 0.259278,0.03369 q -0.04248,0.268066 -0.218262,0.42041 -0.174316,0.150879 -0.429199,0.150879 -0.319336,0 -0.51416,-0.208008 -0.19336,-0.209472 -0.19336,-0.599121 0,-0.251953 0.0835,-0.440918 0.0835,-0.188965 0.253418,-0.282715 0.171387,-0.09522 0.372071,-0.09522 0.253418,0 0.414551,0.128907 0.161132,0.127441 0.206542,0.363281 l -0.256347,0.03955 q -0.03662,-0.156739 -0.130371,-0.23584 -0.09228,-0.0791 -0.224121,-0.0791 -0.199219,0 -0.323731,0.143555 -0.124512,0.14209 -0.124512,0.451172 0,0.313476 0.120118,0.455566 0.120117,0.14209 0.313476,0.14209 0.155274,0 0.259278,-0.09521 0.104003,-0.09522 0.131835,-0.292968 z M 51.019775,12.2 v -2.147461 h 0.263672 V 12.2 Z m 1.173829,-1.844238 v -0.303223 h 0.263671 v 0.303223 z m 0,1.844238 v -1.555664 h 0.263671 V 12.2 Z m 2.174316,0 v -0.196289 q -0.147949,0.231445 -0.435059,0.231445 -0.186035,0 -0.342773,-0.102539 -0.155274,-0.102539 -0.241699,-0.285645 -0.08496,-0.18457 -0.08496,-0.423339 0,-0.232911 0.07764,-0.421875 0.07764,-0.19043 0.232911,-0.291504 0.155273,-0.101075 0.347168,-0.101075 0.140625,0 0.250488,0.06006 0.109863,0.05859 0.178711,0.153809 v -0.770508 h 0.262207 V 12.2 Z m -0.833496,-0.776367 q 0,0.298828 0.125976,0.446777 0.125977,0.147949 0.297364,0.147949 0.172851,0 0.292968,-0.140625 0.121582,-0.14209 0.121582,-0.432129 0,-0.319336 -0.123046,-0.46875 -0.123047,-0.149414 -0.303223,-0.149414 -0.175781,0 -0.294434,0.143555 -0.117187,0.143555 -0.117187,0.452637 z m 3.057617,0.27539 0.272461,0.03369 q -0.06445,0.238769 -0.23877,0.370605 -0.174316,0.131836 -0.445312,0.131836 -0.341309,0 -0.541992,-0.209473 -0.199219,-0.210937 -0.199219,-0.590332 0,-0.392578 0.202148,-0.609375 0.202149,-0.216797 0.524414,-0.216797 0.312012,0 0.509766,0.212403 0.197754,0.212402 0.197754,0.597656 0,0.02344 -0.0015,0.07031 H 55.71167 q 0.01465,0.256347 0.145019,0.392578 0.130372,0.13623 0.325196,0.13623 0.145019,0 0.247558,-0.07617 0.102539,-0.07617 0.162598,-0.243164 z m -0.865723,-0.426269 h 0.868653 q -0.01758,-0.196289 -0.09961,-0.294434 -0.125976,-0.152344 -0.32666,-0.152344 -0.18164,0 -0.306152,0.121582 -0.123047,0.121582 -0.136231,0.325196 z m 2.984375,0.735351 q -0.146484,0.124512 -0.282714,0.175782 -0.134766,0.05127 -0.29004,0.05127 -0.256347,0 -0.394043,-0.124512 -0.137695,-0.125976 -0.137695,-0.3208 0,-0.114258 0.05127,-0.208008 0.05273,-0.09521 0.13623,-0.152344 0.08496,-0.05713 0.19043,-0.08643 0.07764,-0.02051 0.234375,-0.03955 0.319336,-0.03809 0.470215,-0.09082 0.0015,-0.0542 0.0015,-0.06885 0,-0.161132 -0.07471,-0.22705 -0.101075,-0.08936 -0.300293,-0.08936 -0.186036,0 -0.275391,0.06592 -0.08789,0.06445 -0.130371,0.229981 l -0.257813,-0.03516 q 0.03516,-0.165527 0.115723,-0.266601 0.08057,-0.102539 0.23291,-0.156738 0.152344,-0.05567 0.353027,-0.05567 0.199219,0 0.323731,0.04687 0.124512,0.04687 0.183105,0.118653 0.05859,0.07031 0.08203,0.178711 0.01318,0.06738 0.01318,0.243164 v 0.351562 q 0,0.367676 0.01611,0.465821 0.01758,0.09668 0.06738,0.186035 h -0.27539 q -0.04102,-0.08203 -0.05273,-0.191895 z m -0.02197,-0.588867 q -0.143555,0.05859 -0.430664,0.09961 -0.162598,0.02344 -0.229981,0.05274 -0.06738,0.0293 -0.104004,0.08643 -0.03662,0.05566 -0.03662,0.124511 0,0.105469 0.0791,0.175782 0.08057,0.07031 0.234375,0.07031 0.152343,0 0.270996,-0.06592 0.118652,-0.06738 0.174316,-0.183105 0.04248,-0.08936 0.04248,-0.263672 z M 59.864014,12.2 v -1.555664 h 0.237304 v 0.221191 q 0.171387,-0.256348 0.495118,-0.256348 0.140625,0 0.257812,0.05127 0.118652,0.04981 0.177246,0.131836 0.05859,0.08203 0.08203,0.194824 0.01465,0.07324 0.01465,0.256348 V 12.2 h -0.263672 v -0.946289 q 0,-0.161133 -0.03076,-0.240235 -0.03076,-0.08057 -0.109863,-0.127441 -0.07764,-0.04834 -0.183106,-0.04834 -0.168457,0 -0.291503,0.106934 -0.121582,0.106933 -0.121582,0.405761 V 12.2 Z m 3.526855,0 v -2.147461 h 0.427735 l 0.5083,1.520508 q 0.07031,0.212402 0.102539,0.317871 0.03662,-0.117188 0.114258,-0.344239 l 0.51416,-1.49414 h 0.382325 V 12.2 H 65.16626 V 10.402637 L 64.542236,12.2 H 64.285889 L 63.664795,10.371875 V 12.2 Z m 4.039063,-0.500977 0.272461,0.03369 q -0.06445,0.238769 -0.23877,0.370605 -0.174316,0.131836 -0.445312,0.131836 -0.341309,0 -0.541993,-0.209473 -0.199218,-0.210937 -0.199218,-0.590332 0,-0.392578 0.202148,-0.609375 0.202148,-0.216797 0.524414,-0.216797 0.312012,0 0.509766,0.212403 0.197754,0.212402 0.197754,0.597656 0,0.02344 -0.0015,0.07031 h -1.160156 q 0.01465,0.256347 0.145019,0.392578 0.130371,0.13623 0.325195,0.13623 0.14502,0 0.247559,-0.07617 0.102539,-0.07617 0.162598,-0.243164 z m -0.865723,-0.426269 h 0.868652 q -0.01758,-0.196289 -0.09961,-0.294434 -0.125977,-0.152344 -0.32666,-0.152344 -0.181641,0 -0.306153,0.121582 -0.123046,0.121582 -0.13623,0.325196 z M 68.527588,12.2 V 10.052539 H 68.79126 V 12.2 Z m 1.074219,-0.777832 q 0,-0.432129 0.240234,-0.640137 0.200684,-0.172852 0.489258,-0.172852 0.320801,0 0.524414,0.210938 0.203613,0.209473 0.203613,0.580078 0,0.300293 -0.09082,0.473145 -0.08936,0.171386 -0.262207,0.266601 -0.171387,0.09521 -0.375,0.09521 -0.32666,0 -0.528809,-0.209473 -0.200683,-0.209472 -0.200683,-0.603515 z m 0.270996,0 q 0,0.298828 0.130371,0.448242 0.130371,0.147949 0.328125,0.147949 0.196289,0 0.32666,-0.149414 0.130371,-0.149414 0.130371,-0.455566 0,-0.288575 -0.131836,-0.436524 -0.130371,-0.149414 -0.325195,-0.149414 -0.197754,0 -0.328125,0.147949 -0.130371,0.14795 -0.130371,0.446778 z M 72.877686,12.2 v -0.196289 q -0.14795,0.231445 -0.435059,0.231445 -0.186035,0 -0.342773,-0.102539 -0.155274,-0.102539 -0.2417,-0.285645 -0.08496,-0.18457 -0.08496,-0.423339 0,-0.232911 0.07764,-0.421875 0.07764,-0.19043 0.23291,-0.291504 0.155274,-0.101075 0.347168,-0.101075 0.140625,0 0.250488,0.06006 0.109864,0.05859 0.178711,0.153809 v -0.770508 h 0.262207 V 12.2 Z m -0.833497,-0.776367 q 0,0.298828 0.125977,0.446777 0.125977,0.147949 0.297363,0.147949 0.172852,0 0.292969,-0.140625 0.121582,-0.14209 0.121582,-0.432129 0,-0.319336 -0.123047,-0.46875 -0.123047,-0.149414 -0.303222,-0.149414 -0.175782,0 -0.294434,0.143555 -0.117188,0.143555 -0.117188,0.452637 z m 1.994141,-1.067871 v -0.303223 h 0.263672 v 0.303223 z m 0,1.844238 v -1.555664 h 0.263672 V 12.2 Z m 2.180176,-0.569824 0.259277,0.03369 q -0.04248,0.268066 -0.218262,0.42041 -0.174316,0.150879 -0.429199,0.150879 -0.319336,0 -0.51416,-0.208008 -0.193359,-0.209472 -0.193359,-0.599121 0,-0.251953 0.0835,-0.440918 0.0835,-0.188965 0.253418,-0.282715 0.171387,-0.09522 0.37207,-0.09522 0.253418,0 0.414551,0.128907 0.161133,0.127441 0.206543,0.363281 l -0.256348,0.03955 q -0.03662,-0.156739 -0.130371,-0.23584 -0.09229,-0.0791 -0.224121,-0.0791 -0.199219,0 -0.32373,0.143555 -0.124512,0.14209 -0.124512,0.451172 0,0.313476 0.120117,0.455566 0.120117,0.14209 0.313477,0.14209 0.155273,0 0.259277,-0.09521 0.104004,-0.09522 0.131836,-0.292968 z m 2.255371,-0.120118 0.268066,-0.02344 q 0.01904,0.161133 0.08789,0.265137 0.07031,0.102539 0.216797,0.166992 0.146484,0.06299 0.32959,0.06299 0.162597,0 0.287109,-0.04834 0.124512,-0.04834 0.18457,-0.131836 0.06152,-0.08496 0.06152,-0.18457 0,-0.101074 -0.05859,-0.175781 -0.05859,-0.07617 -0.193359,-0.127442 -0.08643,-0.03369 -0.382325,-0.104004 -0.295898,-0.07178 -0.41455,-0.134765 -0.153809,-0.08057 -0.229981,-0.199219 -0.07471,-0.120117 -0.07471,-0.268066 0,-0.162598 0.09229,-0.303223 0.09229,-0.14209 0.269532,-0.215332 0.177246,-0.07324 0.394043,-0.07324 0.238769,0 0.42041,0.07764 0.183105,0.07617 0.28125,0.225586 0.09814,0.149414 0.105468,0.338379 l -0.27246,0.02051 q -0.02197,-0.203613 -0.149415,-0.307617 -0.125976,-0.104004 -0.373535,-0.104004 -0.257812,0 -0.376465,0.09521 -0.117187,0.09375 -0.117187,0.227051 0,0.115722 0.0835,0.190429 0.08203,0.07471 0.427734,0.153809 0.347168,0.07764 0.476075,0.13623 0.1875,0.08643 0.276855,0.219727 0.08936,0.131836 0.08936,0.304687 0,0.171387 -0.09815,0.323731 -0.09814,0.150879 -0.282715,0.23584 -0.183105,0.0835 -0.413086,0.0835 -0.291504,0 -0.489258,-0.08496 -0.196289,-0.08496 -0.309082,-0.254883 -0.111328,-0.171387 -0.117187,-0.386719 z m 3.628906,0.188965 0.272461,0.03369 q -0.06445,0.238769 -0.238769,0.370605 -0.174317,0.131836 -0.445313,0.131836 -0.341308,0 -0.541992,-0.209473 -0.199219,-0.210937 -0.199219,-0.590332 0,-0.392578 0.202149,-0.609375 0.202148,-0.216797 0.524414,-0.216797 0.312011,0 0.509765,0.212403 0.197754,0.212402 0.197754,0.597656 0,0.02344 -0.0015,0.07031 h -1.160156 q 0.01465,0.256347 0.14502,0.392578 0.130371,0.13623 0.325195,0.13623 0.145019,0 0.247559,-0.07617 0.102539,-0.07617 0.162597,-0.243164 z m -0.865722,-0.426269 h 0.868652 q -0.01758,-0.196289 -0.09961,-0.294434 -0.125977,-0.152344 -0.326661,-0.152344 -0.18164,0 -0.306152,0.121582 -0.123047,0.121582 -0.13623,0.325196 z m 2.960937,1.523437 v -0.761719 q -0.06152,0.08643 -0.172852,0.143555 -0.109863,0.05713 -0.234375,0.05713 -0.276855,0 -0.477539,-0.221191 -0.199218,-0.221192 -0.199218,-0.606446 0,-0.234375 0.08057,-0.42041 0.08203,-0.186035 0.23584,-0.28125 0.155273,-0.09668 0.339844,-0.09668 0.288574,0 0.454101,0.243165 v -0.208008 h 0.237305 v 2.151855 z M 83.38501,11.417773 q 0,0.300293 0.125976,0.451172 0.125977,0.149414 0.301758,0.149414 0.168457,0 0.290039,-0.14209 0.121582,-0.143554 0.121582,-0.435058 0,-0.310547 -0.128906,-0.467285 -0.127441,-0.156739 -0.300293,-0.156739 -0.171387,0 -0.291504,0.146485 -0.118652,0.145019 -0.118652,0.454101 z M 86.394287,12.2 v -0.228516 q -0.181641,0.263672 -0.493652,0.263672 -0.137696,0 -0.257813,-0.05273 -0.118652,-0.05274 -0.177246,-0.131836 -0.05713,-0.08057 -0.08057,-0.196289 -0.01611,-0.07764 -0.01611,-0.246094 v -0.963867 h 0.263672 v 0.862793 q 0,0.206543 0.01611,0.27832 0.0249,0.104004 0.105468,0.164063 0.08057,0.05859 0.199219,0.05859 0.118652,0 0.222656,-0.06006 0.104004,-0.06152 0.146485,-0.165528 0.04395,-0.105468 0.04395,-0.304687 v -0.833496 h 0.263672 V 12.2 Z m 2.213867,-0.500977 0.272461,0.03369 q -0.06445,0.238769 -0.238769,0.370605 -0.174317,0.131836 -0.445313,0.131836 -0.341308,0 -0.541992,-0.209473 -0.199219,-0.210937 -0.199219,-0.590332 0,-0.392578 0.202149,-0.609375 0.202148,-0.216797 0.524414,-0.216797 0.312011,0 0.509765,0.212403 0.197754,0.212402 0.197754,0.597656 0,0.02344 -0.0015,0.07031 h -1.160156 q 0.01465,0.256347 0.14502,0.392578 0.130371,0.13623 0.325195,0.13623 0.14502,0 0.247559,-0.07617 0.102539,-0.07617 0.162597,-0.243164 z m -0.865722,-0.426269 h 0.868652 q -0.01758,-0.196289 -0.09961,-0.294434 -0.125977,-0.152344 -0.326661,-0.152344 -0.18164,0 -0.306152,0.121582 -0.123047,0.121582 -0.13623,0.325196 z M 89.71167,12.2 v -1.555664 h 0.237305 v 0.221191 q 0.171386,-0.256348 0.495117,-0.256348 0.140625,0 0.257812,0.05127 0.118653,0.04981 0.177246,0.131836 0.05859,0.08203 0.08203,0.194824 0.01465,0.07324 0.01465,0.256348 V 12.2 h -0.263672 v -0.946289 q 0,-0.161133 -0.03076,-0.240235 -0.03076,-0.08057 -0.109863,-0.127441 -0.07764,-0.04834 -0.183105,-0.04834 -0.168457,0 -0.291504,0.106934 -0.121582,0.106933 -0.121582,0.405761 V 12.2 Z m 3.183594,-0.569824 0.259277,0.03369 q -0.04248,0.268066 -0.218262,0.42041 -0.174316,0.150879 -0.429199,0.150879 -0.319336,0 -0.51416,-0.208008 -0.193359,-0.209472 -0.193359,-0.599121 0,-0.251953 0.0835,-0.440918 0.0835,-0.188965 0.253418,-0.282715 0.171386,-0.09522 0.37207,-0.09522 0.253418,0 0.414551,0.128907 0.161133,0.127441 0.206543,0.363281 l -0.256348,0.03955 q -0.03662,-0.156739 -0.130371,-0.23584 -0.09229,-0.0791 -0.224121,-0.0791 -0.199219,0 -0.323731,0.143555 -0.124511,0.14209 -0.124511,0.451172 0,0.313476 0.120117,0.455566 0.120117,0.14209 0.313476,0.14209 0.155274,0 0.259278,-0.09521 0.104004,-0.09522 0.131836,-0.292968 z m 2.049804,0.06885 0.272461,0.03369 q -0.06445,0.238769 -0.238769,0.370605 -0.174317,0.131836 -0.445313,0.131836 -0.341308,0 -0.541992,-0.209473 -0.199219,-0.210937 -0.199219,-0.590332 0,-0.392578 0.202149,-0.609375 0.202148,-0.216797 0.524414,-0.216797 0.312012,0 0.509765,0.212403 0.197754,0.212402 0.197754,0.597656 0,0.02344 -0.0015,0.07031 h -1.160157 q 0.01465,0.256347 0.14502,0.392578 0.130371,0.13623 0.325195,0.13623 0.14502,0 0.247559,-0.07617 0.102539,-0.07617 0.162597,-0.243164 z m -0.865722,-0.426269 h 0.868652 q -0.01758,-0.196289 -0.09961,-0.294434 -0.125977,-0.152344 -0.32666,-0.152344 -0.181641,0 -0.306153,0.121582 -0.123047,0.121582 -0.13623,0.325196 z M 96.045654,12.2 v -1.555664 h 0.237305 v 0.23584 q 0.09082,-0.165528 0.166992,-0.218262 0.07764,-0.05274 0.169922,-0.05274 0.133301,0 0.270996,0.08496 l -0.09082,0.244629 q -0.09668,-0.05713 -0.19336,-0.05713 -0.08643,0 -0.155273,0.05273 -0.06885,0.05127 -0.09814,0.143554 -0.04395,0.140625 -0.04395,0.307618 V 12.2 Z"
     id="text6"
     style="font-size:3px;font-family:Inter, Roboto, Arial, sans-serif;letter-spacing:0.5;text-anchor:middle;fill:#9d9d9d"
     aria-label="Generative Euclidean Melodic Sequencer" />
  <!-- Section rules -->
  <!-- PARAMS: Row A -->
  <path
     d="m 9.7382081,28.066062 0.2948729,-0.02578 q 0.02095,0.177246 0.09668,0.291651 0.07734,0.112793 0.238476,0.183691 0.161133,0.06929 0.362549,0.06929 0.178858,0 0.315821,-0.05317 0.136962,-0.05317 0.203027,-0.145019 0.06768,-0.09346 0.06768,-0.203028 0,-0.111181 -0.06445,-0.193359 -0.06445,-0.08379 -0.212695,-0.140186 -0.09507,-0.03706 -0.420556,-0.114404 -0.325489,-0.07896 -0.456006,-0.148242 -0.1691897,-0.08862 -0.2529788,-0.219141 -0.082178,-0.132129 -0.082178,-0.294873 0,-0.178857 0.1015136,-0.333545 0.1015142,-0.156298 0.2964842,-0.236865 0.194971,-0.08057 0.433448,-0.08057 0.262646,0 0.462451,0.0854 0.201416,0.08379 0.309375,0.248145 0.107959,0.164355 0.116016,0.372217 l -0.299707,0.02256 q -0.02417,-0.223975 -0.164356,-0.338379 -0.138574,-0.114404 -0.410889,-0.114404 -0.283593,0 -0.414111,0.104736 -0.128906,0.103125 -0.128906,0.249756 0,0.127295 0.09185,0.209473 0.09023,0.08218 0.470507,0.169189 0.381885,0.0854 0.523682,0.149854 0.20625,0.09507 0.304541,0.241699 0.09829,0.145019 0.09829,0.335156 0,0.188526 -0.107959,0.356104 -0.107959,0.165966 -0.310986,0.259424 -0.201416,0.09185 -0.454395,0.09185 -0.320654,0 -0.538183,-0.09346 Q 9.9911866,28.678367 9.8671143,28.491453 9.7446534,28.302928 9.7382081,28.066062 Z m 2.9084469,0.758936 v -2.083447 h -0.778271 v -0.27876 h 1.872363 v 0.27876 h -0.781494 v 2.083447 z m 1.421192,0 v -2.362207 h 1.708007 v 0.27876 h -1.39541 v 0.723486 h 1.306787 v 0.277149 h -1.306787 v 0.804052 h 1.450196 v 0.27876 z m 2.194628,0 v -2.362207 h 0.891065 q 0.235254,0 0.359326,0.02256 0.174023,0.029 0.29165,0.111181 0.117627,0.08057 0.188526,0.227197 0.07251,0.146631 0.07251,0.322266 0,0.301318 -0.191749,0.510791 -0.191748,0.207861 -0.692871,0.207861 h -0.605859 v 0.960351 z m 0.312598,-1.239111 h 0.610693 q 0.30293,0 0.430225,-0.112793 0.127295,-0.112793 0.127295,-0.317432 0,-0.148242 -0.07573,-0.252978 -0.07412,-0.106348 -0.196582,-0.140186 -0.07895,-0.02095 -0.29165,-0.02095 h -0.604248 z m 1.782129,0.480175 0.294873,-0.02578 q 0.02095,0.177246 0.09668,0.291651 0.07734,0.112793 0.238476,0.183691 0.161133,0.06929 0.362549,0.06929 0.178857,0 0.31582,-0.05317 0.136963,-0.05317 0.203028,-0.145019 0.06767,-0.09346 0.06767,-0.203028 0,-0.111181 -0.06445,-0.193359 -0.06445,-0.08379 -0.212695,-0.140186 -0.09507,-0.03706 -0.420557,-0.114404 -0.325488,-0.07896 -0.456006,-0.148242 -0.169189,-0.08862 -0.252978,-0.219141 -0.08218,-0.132129 -0.08218,-0.294873 0,-0.178857 0.101514,-0.333545 0.101514,-0.156298 0.296484,-0.236865 0.194971,-0.08057 0.433448,-0.08057 0.262646,0 0.462451,0.0854 0.201416,0.08379 0.309375,0.248145 0.107959,0.164355 0.116015,0.372217 l -0.299707,0.02256 q -0.02417,-0.223975 -0.164355,-0.338379 -0.138574,-0.114404 -0.410889,-0.114404 -0.283594,0 -0.414111,0.104736 -0.128906,0.103125 -0.128906,0.249756 0,0.127295 0.09184,0.209473 0.09023,0.08218 0.470508,0.169189 0.381885,0.0854 0.523682,0.149854 0.20625,0.09507 0.304541,0.241699 0.09829,0.145019 0.09829,0.335156 0,0.188526 -0.107959,0.356104 -0.107959,0.165966 -0.310987,0.259424 -0.201416,0.09185 -0.454394,0.09185 -0.320654,0 -0.538184,-0.09346 -0.215918,-0.09346 -0.33999,-0.280371 -0.122461,-0.188525 -0.128906,-0.425391 z"
     id="text7"
     style="font-size:3.3px;font-family:Inter, Roboto, Arial, sans-serif;text-anchor:middle;fill:#dcdcdc"
     aria-label="STEPS" />
  <path
     d="m 28.743213,28.824998 v -2.362207 h 0.891064 q 0.235254,0 0.359327,0.02256 0.174023,0.029 0.29165,0.111181 0.117627,0.08057 0.188525,0.227197 0.07251,0.146631 0.07251,0.322266 0,0.301318 -0.191748,0.510791 -0.191748,0.207861 -0.692871,0.207861 h -0.605859 v 0.960351 z m 0.312598,-1.239111 h 0.610693 q 0.30293,0 0.430225,-0.112793 0.127295,-0.112793 0.127295,-0.317432 0,-0.148242 -0.07573,-0.252978 -0.07412,-0.106348 -0.196582,-0.140186 -0.07896,-0.02095 -0.29165,-0.02095 h -0.604248 z m 3.438574,-1.123096 h 0.312597 v 1.364795 q 0,0.356103 -0.08057,0.565576 -0.08057,0.209473 -0.29165,0.341602 -0.209473,0.130517 -0.551075,0.130517 -0.331933,0 -0.543017,-0.114404 -0.211084,-0.114404 -0.301319,-0.330322 -0.09023,-0.21753 -0.09023,-0.592969 v -1.364795 h 0.312598 v 1.363184 q 0,0.307763 0.0564,0.454394 0.05801,0.14502 0.196582,0.223975 0.140186,0.07896 0.341602,0.07896 0.344824,0 0.491455,-0.156299 0.146631,-0.156299 0.146631,-0.601025 z m 0.820166,2.362207 v -2.362207 h 0.312598 v 2.083447 h 1.163378 v 0.27876 z m 1.741845,-0.758936 0.294873,-0.02578 q 0.02095,0.177246 0.09668,0.291651 0.07734,0.112793 0.238476,0.183691 0.161133,0.06929 0.362549,0.06929 0.178858,0 0.315821,-0.05317 0.136963,-0.05317 0.203027,-0.145019 0.06768,-0.09346 0.06768,-0.203028 0,-0.111181 -0.06445,-0.193359 -0.06445,-0.08379 -0.212696,-0.140186 -0.09507,-0.03706 -0.420556,-0.114404 -0.325489,-0.07896 -0.456006,-0.148242 -0.16919,-0.08862 -0.252979,-0.219141 -0.08218,-0.132129 -0.08218,-0.294873 0,-0.178857 0.101513,-0.333545 0.101514,-0.156298 0.296485,-0.236865 0.19497,-0.08057 0.433447,-0.08057 0.262646,0 0.462451,0.0854 0.201416,0.08379 0.309375,0.248145 0.107959,0.164355 0.116016,0.372217 l -0.299707,0.02256 q -0.02417,-0.223975 -0.164356,-0.338379 -0.138574,-0.114404 -0.410889,-0.114404 -0.283593,0 -0.414111,0.104736 -0.128906,0.103125 -0.128906,0.249756 0,0.127295 0.09185,0.209473 0.09023,0.08218 0.470507,0.169189 0.381885,0.0854 0.523682,0.149854 0.20625,0.09507 0.304541,0.241699 0.09829,0.145019 0.09829,0.335156 0,0.188526 -0.107959,0.356104 -0.107959,0.165966 -0.310986,0.259424 -0.201416,0.09185 -0.454395,0.09185 -0.320654,0 -0.538183,-0.09346 -0.215918,-0.09346 -0.339991,-0.280371 -0.12246,-0.188525 -0.128906,-0.425391 z m 2.313868,0.758936 v -2.362207 h 1.708008 v 0.27876 h -1.395411 v 0.723486 h 1.306788 v 0.277149 h -1.306788 v 0.804052 h 1.450196 v 0.27876 z m 2.08828,-0.758936 0.294873,-0.02578 q 0.02095,0.177246 0.09668,0.291651 0.07734,0.112793 0.238477,0.183691 0.161133,0.06929 0.362549,0.06929 0.178857,0 0.31582,-0.05317 0.136963,-0.05317 0.203027,-0.145019 0.06768,-0.09346 0.06768,-0.203028 0,-0.111181 -0.06445,-0.193359 -0.06445,-0.08379 -0.212695,-0.140186 -0.09507,-0.03706 -0.420557,-0.114404 -0.325488,-0.07896 -0.456006,-0.148242 -0.169189,-0.08862 -0.252978,-0.219141 -0.08218,-0.132129 -0.08218,-0.294873 0,-0.178857 0.101513,-0.333545 0.101514,-0.156298 0.296485,-0.236865 0.194971,-0.08057 0.433447,-0.08057 0.262647,0 0.462451,0.0854 0.201416,0.08379 0.309375,0.248145 0.107959,0.164355 0.116016,0.372217 l -0.299707,0.02256 q -0.02417,-0.223975 -0.164356,-0.338379 -0.138574,-0.114404 -0.410888,-0.114404 -0.283594,0 -0.414112,0.104736 -0.128906,0.103125 -0.128906,0.249756 0,0.127295 0.09185,0.209473 0.09023,0.08218 0.470508,0.169189 0.381884,0.0854 0.523681,0.149854 0.20625,0.09507 0.304541,0.241699 0.09829,0.145019 0.09829,0.335156 0,0.188526 -0.107959,0.356104 -0.107959,0.165966 -0.310986,0.259424 -0.201416,0.09185 -0.454394,0.09185 -0.320655,0 -0.538184,-0.09346 -0.215918,-0.09346 -0.33999,-0.280371 -0.122461,-0.188525 -0.128907,-0.425391 z"
     id="text8"
     style="font-size:3.3px;font-family:Inter, Roboto, Arial, sans-serif;text-anchor:middle;fill:#dcdcdc"
     aria-label="PULSES" />
  <path
     d="m 52.413013,28.824998 v -2.362207 h 0.81372 q 0.275538,0 0.420557,0.03384 0.203027,0.04673 0.346436,0.169189 0.186914,0.15791 0.278759,0.404444 0.09346,0.244922 0.09346,0.560742 0,0.269092 -0.06284,0.476953 -0.06284,0.207861 -0.161133,0.344824 -0.09829,0.135352 -0.215918,0.214307 -0.116016,0.07734 -0.281983,0.117627 -0.164359,0.04028 -0.378666,0.04028 z m 0.312597,-0.27876 h 0.504346 q 0.233643,0 0.365772,-0.04351 0.13374,-0.0435 0.212695,-0.122461 0.111182,-0.111181 0.172412,-0.298095 0.06284,-0.188526 0.06284,-0.456006 0,-0.370606 -0.122461,-0.568799 -0.12085,-0.199805 -0.294873,-0.26748 -0.125684,-0.04834 -0.404444,-0.04834 H 52.72561 Z m 2.123731,0.27876 v -2.362207 h 0.312597 v 2.362207 z m 0.868505,0 v -2.362207 h 1.047364 q 0.31582,0 0.480175,0.06445 0.164356,0.06284 0.262647,0.223975 0.09829,0.161133 0.09829,0.356103 0,0.251367 -0.162744,0.42378 -0.162744,0.172412 -0.502735,0.21914 0.124073,0.05962 0.188526,0.117627 0.136963,0.125684 0.259424,0.314209 l 0.410889,0.642923 h -0.393164 l -0.312597,-0.491455 q -0.136963,-0.212695 -0.225586,-0.325488 -0.08862,-0.112793 -0.159522,-0.157911 -0.06929,-0.04512 -0.141797,-0.06284 -0.05317,-0.01128 -0.174023,-0.01128 h -0.362549 v 1.048974 z m 0.312598,-1.319678 h 0.671924 q 0.214307,0 0.335156,-0.04351 0.12085,-0.04512 0.183692,-0.141796 0.06284,-0.09829 0.06284,-0.212696 0,-0.167578 -0.122461,-0.275537 -0.120849,-0.107959 -0.383496,-0.107959 h -0.747656 z"
     id="text9"
     style="font-size:3.3px;font-family:Inter, Roboto, Arial, sans-serif;text-anchor:middle;fill:#dcdcdc"
     aria-label="DIR" />
  <!-- PARAMS: Row B -->
  <path
     d="m 9.0960938,51.066062 0.2948731,-0.02578 q 0.020947,0.177246 0.09668,0.291651 0.077344,0.112793 0.2384765,0.183691 0.1611328,0.06929 0.3625486,0.06929 0.178857,0 0.31582,-0.05317 0.136963,-0.05317 0.203028,-0.145019 0.06768,-0.09346 0.06768,-0.203028 0,-0.111181 -0.06445,-0.193359 -0.06445,-0.08379 -0.212695,-0.140186 -0.09507,-0.03706 -0.4205564,-0.114404 -0.3254966,-0.07896 -0.4560141,-0.14825 -0.1691895,-0.08862 -0.2529786,-0.219141 -0.082178,-0.132129 -0.082178,-0.294873 0,-0.178857 0.1015137,-0.333545 0.1015136,-0.156298 0.2964844,-0.236865 0.1949707,-0.08057 0.433448,-0.08057 0.262646,0 0.462451,0.0854 0.201416,0.08379 0.309375,0.248145 0.107959,0.164355 0.116015,0.372217 l -0.299707,0.02256 q -0.02417,-0.223975 -0.164355,-0.338379 -0.138574,-0.114404 -0.410889,-0.114404 -0.2835939,0 -0.4141115,0.104736 -0.1289062,0.103125 -0.1289062,0.249756 0,0.127295 0.091846,0.209473 0.090234,0.08218 0.4705077,0.169189 0.381885,0.0854 0.523682,0.149854 0.20625,0.09507 0.304541,0.241699 0.09829,0.145019 0.09829,0.335156 0,0.188526 -0.107959,0.356104 -0.107959,0.165966 -0.310987,0.259424 -0.201416,0.09184 -0.454394,0.09184 -0.3206544,0 -0.5381837,-0.09346 -0.2159173,-0.09345 -0.3399895,-0.280361 -0.122461,-0.188525 -0.128906,-0.425391 z m 2.3138672,0.758936 v -2.362207 h 1.708008 v 0.27876 h -1.39541 v 0.723486 h 1.306787 v 0.277149 h -1.306787 v 0.804052 h 1.450195 v 0.27876 z m 2.199463,0 v -2.362207 h 1.047363 q 0.31582,0 0.480176,0.06445 0.164355,0.06284 0.262646,0.223975 0.09829,0.161133 0.09829,0.356103 0,0.251367 -0.162744,0.42378 -0.162744,0.172412 -0.502734,0.21914 0.124072,0.05962 0.188525,0.117627 0.136963,0.125684 0.259424,0.314209 l 0.41089,0.642923 h -0.393164 l -0.312598,-0.491455 q -0.136963,-0.212695 -0.225586,-0.325488 -0.08862,-0.112793 -0.159521,-0.157911 -0.06929,-0.04512 -0.141797,-0.06284 -0.05317,-0.01128 -0.174024,-0.01128 h -0.362549 v 1.048974 z m 0.312597,-1.319678 h 0.671924 q 0.214307,0 0.335156,-0.04351 0.12085,-0.04512 0.183692,-0.141796 0.06284,-0.09829 0.06284,-0.212696 0,-0.167578 -0.122461,-0.275537 -0.12085,-0.107959 -0.383496,-0.107959 h -0.747655 z m 2.118896,1.319678 v -2.362207 h 0.312598 v 2.362207 z m 0.870118,0 v -2.362207 h 1.708008 v 0.27876 h -1.395411 v 0.723486 h 1.306788 v 0.277149 h -1.306788 v 0.804052 h 1.450196 v 0.27876 z m 2.088281,-0.758936 0.294873,-0.02578 q 0.02095,0.177246 0.09668,0.291651 0.07734,0.112793 0.238476,0.183691 0.161133,0.06929 0.362549,0.06929 0.178857,0 0.31582,-0.05317 0.136963,-0.05317 0.203028,-0.145019 0.06768,-0.09346 0.06768,-0.203028 0,-0.111181 -0.06445,-0.193359 -0.06445,-0.08379 -0.212695,-0.140186 -0.09507,-0.03706 -0.420557,-0.114404 -0.325488,-0.07896 -0.456005,-0.148242 -0.16919,-0.08862 -0.252979,-0.219141 -0.08218,-0.132129 -0.08218,-0.294873 0,-0.178857 0.101514,-0.333545 0.101514,-0.156298 0.296484,-0.236865 0.194971,-0.08057 0.433448,-0.08057 0.262646,0 0.462451,0.0854 0.201416,0.08379 0.309375,0.248145 0.107959,0.164355 0.116015,0.372217 l -0.299707,0.02256 q -0.02417,-0.223975 -0.164355,-0.338379 -0.138574,-0.114404 -0.410889,-0.114404 -0.283594,0 -0.414111,0.104736 -0.128906,0.103125 -0.128906,0.249756 0,0.127295 0.09185,0.209473 0.09023,0.08218 0.470508,0.169189 0.381885,0.0854 0.523682,0.149854 0.20625,0.09507 0.304541,0.241699 0.09829,0.145019 0.09829,0.335156 0,0.188526 -0.107959,0.356104 -0.107959,0.165966 -0.310986,0.259424 -0.201417,0.09184 -0.454395,0.09184 -0.320654,0 -0.538184,-0.09346 -0.215918,-0.09346 -0.33999,-0.280371 -0.122461,-0.188525 -0.128906,-0.425391 z"
     id="text10"
     style="font-size:3.3px;font-family:Inter, Roboto, Arial, sans-serif;text-anchor:middle;fill:#dcdcdc"
     aria-label="SERIES" />
  <path
     d="m 30.748511,52.883332 v -2.362207 h 0.312597 v 2.083447 h 1.163379 v 0.27876 z m 1.753125,-1.150488 q 0,-0.588135 0.31582,-0.920069 0.31582,-0.333545 0.815332,-0.333545 0.3271,0 0.589746,0.156299 0.262647,0.156299 0.39961,0.43667 0.138574,0.27876 0.138574,0.633252 0,0.359326 -0.14502,0.64292 -0.145019,0.283594 -0.410888,0.430225 -0.26587,0.145019 -0.573633,0.145019 -0.333545,0 -0.596192,-0.161133 -0.262646,-0.161132 -0.397998,-0.439892 -0.135351,-0.27876 -0.135351,-0.589746 z m 0.322265,0.0048 q 0,0.427002 0.228809,0.673535 0.23042,0.244922 0.576855,0.244922 0.352881,0 0.580079,-0.248145 0.228808,-0.248144 0.228808,-0.70415 0,-0.288428 -0.09829,-0.502735 -0.09668,-0.215918 -0.285205,-0.333544 -0.186914,-0.119239 -0.420557,-0.119239 -0.331933,0 -0.572021,0.228809 -0.238477,0.227197 -0.238478,0.760547 z m 4.025098,0.317431 0.312598,0.07896 q -0.09829,0.385108 -0.354493,0.588135 -0.25459,0.201416 -0.623584,0.201416 -0.381884,0 -0.621972,-0.154687 -0.238477,-0.156299 -0.36416,-0.451172 -0.124073,-0.294873 -0.124073,-0.633252 0,-0.368994 0.140186,-0.64292 0.141797,-0.275537 0.401221,-0.417334 0.261035,-0.143408 0.573632,-0.143408 0.354493,0 0.596192,0.180469 0.241699,0.180468 0.336767,0.507568 l -0.307763,0.07251 q -0.08218,-0.257813 -0.238477,-0.37544 -0.156299,-0.117627 -0.393164,-0.117627 -0.272314,0 -0.456006,0.130518 -0.18208,0.130517 -0.256201,0.351269 -0.07412,0.219141 -0.07412,0.452784 0,0.301318 0.08701,0.526904 0.08862,0.223974 0.273925,0.335156 0.185303,0.111182 0.401221,0.111182 0.262647,0 0.444727,-0.151465 0.18208,-0.151465 0.246533,-0.449561 z m 0.684814,0.828257 v -2.362207 h 0.312598 v 1.171436 l 1.173047,-1.171436 h 0.423779 l -0.990967,0.957129 1.034473,1.405078 h -0.4125 l -0.841113,-1.195605 -0.386719,0.37705 v 0.818555 z"
     id="text11"
     style="font-size:3.3px;font-family:Inter, Roboto, Arial, sans-serif;text-anchor:middle;fill:#dcdcdc"
     aria-label="LOCK" />
  <path
     d="m 50.777515,51.066062 0.294873,-0.02578 q 0.02095,0.177246 0.09668,0.291651 0.07734,0.112793 0.238477,0.183691 0.161133,0.06929 0.362549,0.06929 0.178857,0 0.31582,-0.05317 0.136963,-0.05317 0.203027,-0.145019 0.06768,-0.09346 0.06768,-0.203028 0,-0.111181 -0.06445,-0.193359 -0.06445,-0.08379 -0.212695,-0.140186 -0.09507,-0.03706 -0.420557,-0.114404 -0.325488,-0.07896 -0.456006,-0.148242 -0.169189,-0.08862 -0.252978,-0.219141 -0.08218,-0.132129 -0.08218,-0.294873 0,-0.178857 0.101514,-0.333545 0.101513,-0.156298 0.296484,-0.236865 0.194971,-0.08057 0.433447,-0.08057 0.262647,0 0.462452,0.0854 0.201416,0.08379 0.309375,0.248145 0.107959,0.164355 0.116015,0.372217 l -0.299707,0.02256 q -0.02417,-0.223975 -0.164355,-0.338379 -0.138575,-0.114404 -0.410889,-0.114404 -0.283594,0 -0.414111,0.104736 -0.128907,0.103125 -0.128907,0.249756 0,0.127295 0.09185,0.209473 0.09023,0.08218 0.470508,0.169189 0.381885,0.0854 0.523682,0.149854 0.20625,0.09507 0.304541,0.241699 0.09829,0.145019 0.09829,0.335156 0,0.188526 -0.107959,0.356104 -0.107959,0.165966 -0.310987,0.259424 -0.201416,0.09184 -0.454394,0.09184 -0.320655,0 -0.538184,-0.09346 -0.215918,-0.09346 -0.33999,-0.280371 -0.12247,-0.188523 -0.128915,-0.425389 z m 2.307421,0.758936 v -2.362207 h 0.891065 q 0.235254,0 0.359326,0.02256 0.174024,0.029 0.29165,0.111181 0.117627,0.08057 0.188526,0.227197 0.07251,0.146631 0.07251,0.322266 0,0.301318 -0.191748,0.510791 -0.191748,0.207861 -0.692871,0.207861 h -0.60586 v 0.960351 z m 0.312598,-1.239111 h 0.610693 q 0.30293,0 0.430225,-0.112793 0.127295,-0.112793 0.127295,-0.317432 0,-0.148242 -0.07573,-0.252978 -0.07412,-0.106348 -0.196582,-0.140186 -0.07896,-0.02095 -0.291651,-0.02095 h -0.60425 z m 1.384131,1.239111 0.907178,-2.362207 h 0.336767 l 0.966797,2.362207 h -0.356103 l -0.275537,-0.71543 h -0.987744 l -0.259424,0.71543 z m 0.681592,-0.97002 h 0.80083 l -0.246533,-0.654199 q -0.112793,-0.298095 -0.167578,-0.489843 -0.04512,0.227197 -0.127295,0.451171 z m 1.775683,0.97002 v -2.362207 h 0.320655 l 1.240722,1.854639 v -1.854639 h 0.299707 v 2.362207 H 58.77937 l -1.240723,-1.85625 v 1.85625 z"
     id="text12"
     style="font-size:3.3px;font-family:Inter, Roboto, Arial, sans-serif;text-anchor:middle;fill:#dcdcdc"
     aria-label="SPAN" />
  <path
     d="m 70.30459,51.824998 v -2.362207 h 0.891064 q 0.235254,0 0.359327,0.02256 0.174023,0.029 0.29165,0.111181 0.117627,0.08057 0.188525,0.227197 0.07251,0.146631 0.07251,0.322266 0,0.301318 -0.191748,0.510791 -0.191748,0.207861 -0.692871,0.207861 h -0.605859 v 0.960351 z m 0.312598,-1.239111 h 0.610693 q 0.30293,0 0.430225,-0.112793 0.127294,-0.112793 0.127294,-0.317432 0,-0.148242 -0.07573,-0.252978 -0.07412,-0.106348 -0.196582,-0.140186 -0.07896,-0.02095 -0.29165,-0.02095 h -0.60425 z m 1.94165,1.239111 v -2.362207 h 0.312598 v 2.362207 z m 1.464697,0 v -2.083447 h -0.778271 v -0.27876 h 1.872363 v 0.27876 h -0.781494 v 2.083447 z m 3.100195,-0.828223 0.312598,0.07896 q -0.09829,0.385108 -0.354492,0.588135 -0.25459,0.201416 -0.623584,0.201416 -0.381885,0 -0.621973,-0.154687 -0.238476,-0.156299 -0.36416,-0.451172 -0.124072,-0.294873 -0.124072,-0.633252 0,-0.368994 0.140185,-0.64292 0.141797,-0.275537 0.401221,-0.417334 0.261035,-0.143408 0.573633,-0.143408 0.354492,0 0.596191,0.180469 0.2417,0.180468 0.336768,0.507568 l -0.307764,0.07251 q -0.08218,-0.257813 -0.238476,-0.37544 -0.156299,-0.117627 -0.393164,-0.117627 -0.272315,0 -0.456006,0.130518 -0.18208,0.130517 -0.256201,0.351269 -0.07412,0.219141 -0.07412,0.452784 0,0.301318 0.08701,0.526904 0.08862,0.223974 0.273926,0.335156 0.185303,0.111182 0.401221,0.111182 0.262646,0 0.444726,-0.151465 0.18208,-0.151465 0.246533,-0.449561 z m 0.707373,0.828223 v -2.362207 h 0.312598 v 0.97002 h 1.227832 v -0.97002 h 0.312597 v 2.362207 H 79.371533 V 50.71157 h -1.227832 v 1.113428 z"
     id="text13"
     style="font-size:3.3px;font-family:Inter, Roboto, Arial, sans-serif;text-anchor:middle;fill:#dcdcdc"
     aria-label="PITCH" />
  <path
     d="M 91.052246,51.824998 90.42544,49.462791 h 0.320654 l 0.359326,1.548486 q 0.05801,0.243311 0.0999,0.483399 0.09024,-0.378662 0.106348,-0.43667 l 0.449561,-1.595215 h 0.37705 l 0.338379,1.195605 q 0.127295,0.444727 0.183692,0.83628 0.04512,-0.223975 0.117627,-0.514014 l 0.370605,-1.517871 h 0.314209 l -0.647752,2.362207 H 92.513721 L 92.01582,50.025145 q -0.06284,-0.225586 -0.07412,-0.277149 -0.03706,0.162744 -0.06929,0.277149 l -0.501121,1.799853 z m 2.320313,0 0.907177,-2.362207 h 0.336768 l 0.966797,2.362207 h -0.356104 l -0.275537,-0.71543 h -0.987744 l -0.259424,0.71543 z m 0.681591,-0.97002 h 0.800831 l -0.246534,-0.654199 q -0.112793,-0.298095 -0.167578,-0.489843 -0.04512,0.227197 -0.127295,0.451171 z m 1.766016,0.97002 v -2.362207 h 0.312598 v 2.083447 h 1.163379 v 0.27876 z m 1.835303,0 v -2.362207 h 0.312597 v 1.171436 l 1.173047,-1.171436 h 0.423779 l -0.990966,0.957129 1.034472,1.405078 h -0.4125 l -0.841113,-1.195605 -0.386719,0.37705 v 0.818555 z"
     id="text14"
     style="font-size:3.3px;font-family:Inter, Roboto, Arial, sans-serif;text-anchor:middle;fill:#dcdcdc"
     aria-label="WALK" />
  <!-- PARAMS: Row C -->
  <path
     d="m 8.8125001,73.824998 v -2.362207 h 1.0473633 q 0.3158206,0 0.4801756,0.06445 0.164356,0.06284 0.262647,0.223975 0.09829,0.161133 0.09829,0.356103 0,0.251367 -0.162745,0.42378 -0.162744,0.172412 -0.502734,0.21914 0.124072,0.05962 0.188526,0.117627 0.136962,0.125684 0.259423,0.314209 l 0.41089,0.642923 H 10.501172 L 10.188574,73.333543 Q 10.051611,73.120848 9.9629884,73.008055 9.8743653,72.895262 9.8034669,72.850144 9.7341798,72.805027 9.66167,72.787303 9.6084962,72.776023 9.4876466,72.776023 H 9.1250977 v 1.048975 z M 9.1250977,72.50532 h 0.6719239 q 0.2143064,0 0.3351564,-0.04351 0.120849,-0.04512 0.183691,-0.141796 0.06284,-0.09829 0.06284,-0.212696 0,-0.167578 -0.122461,-0.275537 Q 10.1354,71.723826 9.872754,71.723826 H 9.1250977 Z m 1.9706543,0.16919 q 0,-0.588135 0.31582,-0.920069 0.315821,-0.333545 0.815332,-0.333545 0.3271,0 0.589746,0.156299 0.262647,0.156299 0.39961,0.43667 0.138574,0.27876 0.138574,0.633252 0,0.359326 -0.14502,0.64292 -0.145019,0.283594 -0.410888,0.430225 -0.265869,0.145019 -0.573633,0.145019 -0.333545,0 -0.596191,-0.161133 -0.262647,-0.161132 -0.397999,-0.439892 -0.135351,-0.27876 -0.135351,-0.589746 z m 0.322266,0.0048 q 0,0.427002 0.228808,0.673535 0.23042,0.244922 0.576856,0.244922 0.35288,0 0.580078,-0.248145 0.228808,-0.248144 0.228808,-0.70415 0,-0.288428 -0.09829,-0.502735 -0.09668,-0.215918 -0.285205,-0.333544 -0.186914,-0.119239 -0.420556,-0.119239 -0.331934,0 -0.572022,0.228809 -0.238476,0.227197 -0.238476,0.760547 z m 2.940673,1.145688 V 71.741551 H 13.58042 v -0.27876 h 1.872363 v 0.27876 h -0.781494 v 2.083447 z m 0.910401,0 0.907178,-2.362207 h 0.336767 l 0.966797,2.362207 H 17.12373 l -0.275537,-0.71543 h -0.987744 l -0.259424,0.71543 z m 0.681592,-0.97002 h 0.80083 L 16.50498,72.200779 q -0.112793,-0.298095 -0.167578,-0.489843 -0.04512,0.227197 -0.127295,0.451171 z m 2.135009,0.97002 v -2.083447 h -0.778271 v -0.27876 h 1.872363 v 0.27876 h -0.781494 v 2.083447 z m 1.421191,0 v -2.362207 h 1.708008 v 0.27876 h -1.39541 v 0.723486 h 1.306787 v 0.277149 h -1.306787 v 0.804052 h 1.450195 v 0.27876 z"
     id="text15"
     style="font-size:3.3px;font-family:Inter, Roboto, Arial, sans-serif;text-anchor:middle;fill:#dcdcdc"
     aria-label="ROTATE" />
  <path
     d="m 30.570459,73.824998 v -2.362207 h 0.470508 l 0.559131,1.672559 q 0.07734,0.233642 0.112793,0.349658 0.04028,-0.128906 0.125683,-0.378662 l 0.565576,-1.643555 h 0.420557 v 2.362207 h -0.301318 v -1.9771 l -0.686426,1.9771 h -0.281982 l -0.683204,-2.010937 v 2.010937 z m 4.308691,-2.362207 h 0.312598 v 1.364795 q 0,0.356103 -0.08057,0.565576 -0.08057,0.209473 -0.291651,0.341602 -0.209472,0.130517 -0.551074,0.130517 -0.331934,0 -0.543018,-0.114404 -0.211084,-0.114404 -0.301318,-0.330322 -0.09023,-0.21753 -0.09023,-0.592969 v -1.364795 h 0.312597 v 1.363184 q 0,0.307763 0.0564,0.454394 0.05801,0.14502 0.196582,0.223975 0.140185,0.07896 0.341601,0.07896 0.344825,0 0.491455,-0.156299 0.146631,-0.156299 0.146631,-0.601025 z m 1.434082,2.362207 v -2.083447 h -0.778271 v -0.27876 h 1.872363 v 0.27876 H 36.62583 v 2.083447 z m 1.421191,0 v -2.362207 h 1.708008 v 0.27876 h -1.39541 v 0.723486 h 1.306787 v 0.277149 h -1.306787 v 0.804052 h 1.450195 v 0.27876 z"
     id="text16"
     style="font-size:3.3px;font-family:Inter, Roboto, Arial, sans-serif;text-anchor:middle;fill:#dcdcdc"
     aria-label="MUTE" />
  <!-- Custom Scale strip -->
  <path
     d="m 46.320752,84.338641 0.293652,0.07417 q -0.09233,0.361767 -0.333007,0.55249 -0.23916,0.189209 -0.585791,0.189209 -0.358741,0 -0.584278,-0.145313 -0.224023,-0.146826 -0.342089,-0.423828 -0.116553,-0.277002 -0.116553,-0.594873 0,-0.346631 0.131689,-0.603955 0.133203,-0.258838 0.376905,-0.392041 0.245214,-0.134717 0.538867,-0.134717 0.333007,0 0.560058,0.169532 0.227051,0.169531 0.316358,0.476806 l -0.289112,0.06811 q -0.0772,-0.242187 -0.224023,-0.352685 -0.146826,-0.110498 -0.369336,-0.110498 -0.255811,0 -0.428369,0.122607 -0.171045,0.122608 -0.240674,0.329981 -0.06963,0.205859 -0.06963,0.425341 0,0.283057 0.08174,0.494971 0.08325,0.210401 0.257325,0.314844 0.174072,0.104443 0.376904,0.104443 0.246728,0 0.417773,-0.142285 0.171045,-0.142285 0.231592,-0.422314 z m 2.711573,-1.441016 h 0.293652 v 1.28208 q 0,0.334522 -0.07568,0.531299 -0.07568,0.196777 -0.273974,0.320898 -0.196778,0.122608 -0.517676,0.122608 -0.311817,0 -0.510108,-0.107471 -0.198291,-0.107471 -0.283056,-0.310303 -0.08477,-0.204345 -0.08477,-0.557031 v -1.28208 h 0.293653 v 1.280566 q 0,0.289112 0.05298,0.426856 0.05449,0.13623 0.184668,0.2104 0.131689,0.07417 0.320898,0.07417 0.323926,0 0.46167,-0.146826 0.137745,-0.146826 0.137745,-0.5646 z m 1.282666,1.506104 0.277002,-0.02422 q 0.01968,0.166504 0.09082,0.273974 0.07266,0.105957 0.224023,0.172559 0.151368,0.06509 0.340577,0.06509 0.168017,0 0.296679,-0.04995 0.128662,-0.04995 0.190723,-0.136231 0.06357,-0.08779 0.06357,-0.190722 0,-0.104444 -0.06055,-0.181641 -0.06055,-0.07871 -0.199804,-0.131689 -0.08931,-0.03481 -0.395069,-0.107471 -0.305762,-0.07417 -0.428369,-0.139258 -0.158936,-0.08325 -0.237646,-0.205859 -0.0772,-0.124121 -0.0772,-0.277002 0,-0.168018 0.09536,-0.31333 0.09536,-0.146827 0.278515,-0.22251 0.183155,-0.07568 0.407178,-0.07568 0.246728,0 0.434424,0.08022 0.189209,0.07871 0.290625,0.233105 0.101416,0.154395 0.108984,0.349659 l -0.281543,0.02119 q -0.0227,-0.2104 -0.154394,-0.317871 -0.130176,-0.107471 -0.385987,-0.107471 -0.266406,0 -0.389013,0.09839 -0.121094,0.09687 -0.121094,0.234619 0,0.11958 0.08628,0.196777 0.08477,0.0772 0.441992,0.158936 0.358741,0.08022 0.491944,0.140771 0.19375,0.08931 0.286084,0.227051 0.09233,0.136231 0.09233,0.314844 0,0.177099 -0.101416,0.334521 -0.101416,0.155909 -0.292139,0.243702 -0.189209,0.08628 -0.426855,0.08628 -0.301221,0 -0.505567,-0.08779 -0.202832,-0.08779 -0.319385,-0.263379 -0.115039,-0.1771 -0.121093,-0.399609 z m 3.332178,0.712939 V 83.15949 h -0.731104 v -0.261865 h 1.758887 v 0.261865 h -0.734131 v 1.957178 z m 1.783691,-1.080762 q 0,-0.55249 0.296679,-0.864306 0.29668,-0.31333 0.765918,-0.31333 0.307276,0 0.554004,0.146826 0.246729,0.146826 0.375391,0.410205 0.130176,0.261865 0.130176,0.594873 0,0.337549 -0.136231,0.603955 -0.13623,0.266406 -0.385986,0.40415 -0.249756,0.136231 -0.538867,0.136231 -0.313331,0 -0.560059,-0.151367 Q 55.685156,84.851775 55.558008,84.58991 55.43086,84.328045 55.43086,84.035906 Z m 0.302734,0.0045 q 0,0.401123 0.214941,0.632715 0.216455,0.230078 0.541895,0.230078 0.331494,0 0.544922,-0.233105 0.214941,-0.233106 0.214941,-0.661475 0,-0.270947 -0.09233,-0.472265 -0.09082,-0.202832 -0.26792,-0.31333 -0.175586,-0.112012 -0.395068,-0.112012 -0.311816,0 -0.537354,0.214941 -0.224023,0.213428 -0.224023,0.714453 z m 2.788769,1.076262 v -2.219043 h 0.441993 l 0.525244,1.571191 q 0.07266,0.219483 0.105957,0.328467 0.03784,-0.121094 0.118066,-0.355713 l 0.531299,-1.543945 h 0.395068 v 2.219043 h -0.283056 v -1.857275 l -0.644825,1.857275 H 59.447217 L 58.80542,83.227606 v 1.889062 z m 4.552783,-0.712939 0.277002,-0.02422 q 0.01968,0.166504 0.09082,0.273974 0.07266,0.105957 0.224023,0.172559 0.151367,0.06509 0.340576,0.06509 0.168018,0 0.29668,-0.04995 0.128662,-0.04995 0.190723,-0.136231 0.06357,-0.08779 0.06357,-0.190722 0,-0.104444 -0.06055,-0.181641 -0.06055,-0.07871 -0.199805,-0.131689 -0.08931,-0.03481 -0.395068,-0.107471 -0.305762,-0.07417 -0.428369,-0.139258 -0.158936,-0.08325 -0.237647,-0.205859 -0.0772,-0.124121 -0.0772,-0.277002 0,-0.168018 0.09536,-0.31333 0.09536,-0.146827 0.278516,-0.22251 0.183154,-0.07568 0.407178,-0.07568 0.246728,0 0.434423,0.08022 0.189209,0.07871 0.290625,0.233105 0.101416,0.154395 0.108985,0.349659 l -0.281543,0.02119 q -0.02271,-0.2104 -0.154395,-0.317871 -0.130175,-0.107471 -0.385986,-0.107471 -0.266406,0 -0.389014,0.09839 -0.121093,0.09687 -0.121093,0.234619 0,0.11958 0.08628,0.196777 0.08477,0.0772 0.441992,0.158936 0.35874,0.08022 0.491943,0.140771 0.19375,0.08931 0.286084,0.227051 0.09233,0.136231 0.09233,0.314844 0,0.177099 -0.101416,0.334521 -0.101416,0.155909 -0.292138,0.243702 -0.189209,0.08628 -0.426856,0.08628 -0.30122,0 -0.505566,-0.08779 -0.202832,-0.08779 -0.319385,-0.263379 -0.115039,-0.1771 -0.121094,-0.399609 z m 4.35088,-0.06509 0.293653,0.07417 q -0.09233,0.361767 -0.333008,0.55249 -0.23916,0.189209 -0.585791,0.189209 -0.35874,0 -0.584277,-0.145313 -0.224024,-0.146826 -0.34209,-0.423828 -0.116553,-0.277002 -0.116553,-0.594873 0,-0.346631 0.131689,-0.603955 0.133204,-0.258838 0.376905,-0.392041 0.245215,-0.134717 0.538867,-0.134717 0.333008,0 0.560058,0.169532 0.227051,0.169531 0.316358,0.476806 l -0.289111,0.06811 q -0.0772,-0.242187 -0.224024,-0.352685 -0.146826,-0.110498 -0.369336,-0.110498 -0.25581,0 -0.428369,0.122607 -0.171045,0.122608 -0.240674,0.329981 -0.06963,0.205859 -0.06963,0.425341 0,0.283057 0.08174,0.494971 0.08325,0.210401 0.257324,0.314844 0.174072,0.104443 0.376904,0.104443 0.246729,0 0.417774,-0.142285 0.171044,-0.142285 0.231591,-0.422314 z m 1.011719,0.778029 0.852197,-2.219043 h 0.316357 l 0.908204,2.219043 h -0.334522 l -0.258838,-0.67207 h -0.927881 l -0.243701,0.67207 z m 0.640283,-0.91123 h 0.752295 l -0.231592,-0.614551 q -0.105957,-0.280029 -0.157422,-0.460156 -0.04238,0.213427 -0.11958,0.423828 z m 2.258984,0.91123 v -2.219043 h 0.293652 v 1.957178 h 1.092871 v 0.261865 z m 2.342236,0 V 82.897625 H 75.28374 V 83.15949 H 73.9729 v 0.679639 h 1.227588 v 0.260352 H 73.9729 v 0.755322 h 1.362305 v 0.261865 z"
     id="text17"
     style="font-size:3.1px;font-family:Inter, Roboto, Arial, sans-serif;letter-spacing:0.6;text-anchor:middle;fill:#bdbdbd"
     aria-label="CUSTOM SCALE" />
  <!-- Bottom I/O labels -->
  <path
     d="m 13.807227,123.80948 0.293652,0.0742 q -0.09233,0.36177 -0.333008,0.55249 -0.23916,0.18921 -0.585791,0.18921 -0.35874,0 -0.584277,-0.14531 -0.224024,-0.14683 -0.34209,-0.42383 -0.116553,-0.277 -0.116553,-0.59487 0,-0.34663 0.13169,-0.60396 0.133203,-0.25883 0.376904,-0.39204 0.245215,-0.13471 0.538867,-0.13471 0.333008,0 0.560059,0.16953 0.227051,0.16953 0.316357,0.4768 l -0.289111,0.0681 q -0.0772,-0.24219 -0.224024,-0.35269 -0.146826,-0.1105 -0.369336,-0.1105 -0.25581,0 -0.428369,0.12261 -0.171045,0.12261 -0.240673,0.32998 -0.06963,0.20586 -0.06963,0.42534 0,0.28306 0.08174,0.49498 0.08325,0.2104 0.257324,0.31484 0.174072,0.10444 0.376904,0.10444 0.246729,0 0.417774,-0.14228 0.171045,-0.14229 0.231592,-0.42232 z m 0.64331,0.77803 v -2.21904 h 0.293652 v 1.95717 h 1.092872 v 0.26187 z m 1.724072,0 v -2.21904 h 0.293653 v 1.10044 l 1.101953,-1.10044 h 0.398095 l -0.930908,0.89912 0.971778,1.31992 h -0.3875 l -0.790137,-1.12314 -0.363281,0.35419 v 0.76895 z"
     id="text18"
     style="font-size:3.1px;font-family:Inter, Roboto, Arial, sans-serif;text-anchor:middle;fill:#cfcfcf"
     aria-label="CLK" />
  <path
     d="m 27.143701,124.58751 v -2.21904 h 0.983887 q 0.29668,0 0.451074,0.0605 0.154395,0.059 0.246729,0.2104 0.09233,0.15137 0.09233,0.33453 0,0.23613 -0.152881,0.39809 -0.152881,0.16196 -0.472266,0.20586 0.116553,0.056 0.1771,0.1105 0.128662,0.11807 0.243701,0.29516 l 0.38599,0.604 h -0.369336 l -0.293652,-0.46167 q -0.128662,-0.1998 -0.211914,-0.30576 -0.08325,-0.10596 -0.149854,-0.14834 -0.06509,-0.0424 -0.133203,-0.059 -0.04995,-0.0106 -0.163476,-0.0106 h -0.340576 v 0.98537 z m 0.293653,-1.2397 h 0.631201 q 0.201318,0 0.314843,-0.0409 0.113526,-0.0424 0.172559,-0.1332 0.05903,-0.0923 0.05903,-0.1998 0,-0.15743 -0.115039,-0.25884 -0.113525,-0.10142 -0.360254,-0.10142 h -0.702343 z m 1.840625,0.52676 0.277002,-0.0242 q 0.01968,0.16651 0.09082,0.27398 0.07266,0.10595 0.224023,0.17256 0.151367,0.0651 0.340576,0.0651 0.168018,0 0.29668,-0.05 0.128662,-0.0499 0.190723,-0.13623 0.06357,-0.0878 0.06357,-0.19072 0,-0.10444 -0.06055,-0.18164 -0.06055,-0.0787 -0.199805,-0.13169 -0.08931,-0.0348 -0.395068,-0.10747 -0.305762,-0.0742 -0.428369,-0.13926 -0.158936,-0.0833 -0.237647,-0.20586 -0.0772,-0.12412 -0.0772,-0.277 0,-0.16802 0.09536,-0.31333 0.09536,-0.14683 0.278515,-0.22251 0.183154,-0.0757 0.407178,-0.0757 0.246728,0 0.434424,0.0802 0.189209,0.0787 0.290625,0.23311 0.101416,0.15439 0.108984,0.34965 l -0.281543,0.0212 q -0.0227,-0.2104 -0.154394,-0.31787 -0.130176,-0.10747 -0.385987,-0.10747 -0.266406,0 -0.389013,0.0984 -0.121094,0.0969 -0.121094,0.23462 0,0.11958 0.08628,0.19678 0.08477,0.0772 0.441992,0.15893 0.358741,0.0802 0.491944,0.14078 0.19375,0.0893 0.286084,0.22705 0.09233,0.13623 0.09233,0.31484 0,0.1771 -0.101416,0.33452 -0.101416,0.15591 -0.292139,0.2437 -0.189209,0.0863 -0.426856,0.0863 -0.30122,0 -0.505566,-0.0878 -0.202832,-0.0878 -0.319385,-0.26338 -0.115039,-0.1771 -0.121093,-0.39961 z m 2.732177,0.71294 v -1.95718 h -0.731103 v -0.26186 h 1.758886 v 0.26186 h -0.73413 v 1.95718 z"
     id="text19"
     style="font-size:3.1px;font-family:Inter, Roboto, Arial, sans-serif;text-anchor:middle;fill:#cfcfcf"
     aria-label="RST" />
  <path
     d="m 89.669263,123.80948 0.293652,0.0742 q -0.09233,0.36177 -0.333008,0.55249 -0.23916,0.18921 -0.585791,0.18921 -0.35874,0 -0.584277,-0.14531 -0.224024,-0.14683 -0.34209,-0.42383 -0.116553,-0.277 -0.116553,-0.59487 0,-0.34663 0.13169,-0.60396 0.133203,-0.25883 0.376904,-0.39204 0.245215,-0.13471 0.538867,-0.13471 0.333008,0 0.560059,0.16953 0.227051,0.16953 0.316357,0.4768 l -0.289111,0.0681 q -0.0772,-0.24219 -0.224024,-0.35269 -0.146826,-0.1105 -0.369335,-0.1105 -0.255811,0 -0.42837,0.12261 -0.171044,0.12261 -0.240673,0.32998 -0.06963,0.20586 -0.06963,0.42534 0,0.28306 0.08174,0.49498 0.08325,0.2104 0.257324,0.31484 0.174072,0.10444 0.376904,0.10444 0.246729,0 0.417774,-0.14228 0.171045,-0.14229 0.231592,-0.42232 z m 1.289648,0.77803 -0.859765,-2.21904 h 0.317871 l 0.576709,1.61206 q 0.06963,0.19375 0.116552,0.36328 0.05147,-0.18164 0.11958,-0.36328 l 0.599414,-1.61206 h 0.299707 l -0.868847,2.21904 z"
     id="text20"
     style="font-size:3.1px;font-family:Inter, Roboto, Arial, sans-serif;text-anchor:middle;fill:#cfcfcf"
     aria-label="CV" />
  <path
     d="m 102.17246,123.71715 v -0.26035 l 0.93999,-0.002 v 0.82344 q -0.21645,0.17256 -0.44653,0.26035 -0.23008,0.0863 -0.47227,0.0863 -0.32695,0 -0.59487,-0.13926 -0.26641,-0.14077 -0.40264,-0.40566 -0.13623,-0.26489 -0.13623,-0.59185 0,-0.32392 0.13472,-0.60395 0.13623,-0.28154 0.39053,-0.41777 0.25429,-0.13623 0.58579,-0.13623 0.24067,0 0.43442,0.0787 0.19526,0.0772 0.30576,0.21645 0.1105,0.13926 0.16802,0.36328 l -0.26489,0.0727 q -0.05,-0.16953 -0.12412,-0.26641 -0.0742,-0.0969 -0.21192,-0.15439 -0.13774,-0.059 -0.30576,-0.059 -0.20132,0 -0.34814,0.0621 -0.14683,0.0605 -0.23765,0.16044 -0.0893,0.0999 -0.13926,0.21949 -0.0848,0.20586 -0.0848,0.44653 0,0.29668 0.10141,0.49648 0.10293,0.19981 0.2982,0.29668 0.19526,0.0969 0.41474,0.0969 0.19072,0 0.37237,-0.0727 0.18164,-0.0742 0.27548,-0.15742 v -0.41323 z m 1.1292,0.87036 0.8522,-2.21904 h 0.31635 l 0.90821,2.21904 h -0.33452 l -0.25884,-0.67207 h -0.92788 l -0.2437,0.67207 z m 0.64028,-0.91123 h 0.7523 l -0.23159,-0.61455 q -0.10596,-0.28003 -0.15743,-0.46016 -0.0424,0.21343 -0.11958,0.42383 z m 2.00562,0.91123 v -1.95718 h -0.73111 v -0.26186 h 1.75889 v 0.26186 h -0.73413 v 1.95718 z m 1.33506,0 v -2.21904 h 1.60449 v 0.26186 h -1.31084 v 0.67964 h 1.22759 v 0.26035 h -1.22759 v 0.75532 h 1.3623 v 0.26187 z"
     id="text21"
     style="font-size:3.1px;font-family:Inter, Roboto, Arial, sans-serif;text-anchor:middle;fill:#cfcfcf"
     aria-label="GATE" />
  <!-- Subtle locator dots for knob centers (optional) -->
  <!-- Footer -->
  <path
     d="m 57.720215,126 v -2.0043 h 0.399219 l 0.474414,1.41914 q 0.06562,0.19825 0.0957,0.29668 0.03418,-0.10937 0.10664,-0.32129 l 0.479883,-1.39453 H 59.63291 V 126 h -0.255664 v -1.67754 L 58.794824,126 h -0.239258 l -0.579687,-1.70625 V 126 Z m 2.690625,0 -0.531836,-2.0043 h 0.27207 l 0.304883,1.31387 q 0.04922,0.20645 0.08477,0.41016 0.07656,-0.32129 0.09023,-0.37051 l 0.381445,-1.35352 h 0.319922 l 0.28711,1.01446 q 0.108007,0.37734 0.155859,0.70957 0.03828,-0.19004 0.09981,-0.43614 l 0.314453,-1.28789 h 0.266601 L 61.906543,126 h -0.255664 l -0.422461,-1.52715 q -0.05332,-0.1914 -0.06289,-0.23515 -0.03144,0.13808 -0.05879,0.23515 L 60.681543,126 Z"
     id="text30"
     style="font-size:2.8px;font-family:Inter, Roboto, Arial, sans-serif;text-anchor:middle;fill:#7a7a7a"
     aria-label="MW" />
</svg>
